# xmcd
#
# Track frame offsets:
#  150
#  18341
#  36877
#  53519
#  70234
#  88519
#  105885
#  128000
#  157417
#  170719
#  184438
#  213946
#  246322
#
# Disc length: 3485 seconds
#
# Revision: 0
# Processed by: cddbd v1.5.2PL0 Copyright (c) Steve Scherf et al.
# Submitted via: AltoMP3_Maker 3.0
#
DISCID=b00d9b0d
DTITLE=Black - Guess Who's Back
DYEAR=1900
DGENRE=
TTITLE0=Teri To
TTITLE1=2 Tha Ceiling
TTITLE2=Tere Mere Pyaar Ka
TTITLE3=Pania
TTITLE4=Man Mohiye
TTITLE5=Footprints
TTITLE6=Ganga Djamoena Teer
TTITLE7=Verjarie Mix
TTITLE8=Pania Rmx
TTITLE9=Tere Mere Pyaar Ka Rmx
TTITLE10=Diya's Birthday Song
TTITLE11=Fragm.tjamake Tjalo
TTITLE12=Fragm.maticoor
EXTD=
EXTT0=
EXTT1=
EXTT2=
EXTT3=
EXTT4=
EXTT5=
EXTT6=
EXTT7=
EXTT8=
EXTT9=
EXTT10=
EXTT11=
EXTT12=
PLAYORDER=
